<svg width="24" height="29" viewBox="0 0 24 29" fill="none" xmlns="http://www.w3.org/2000/svg">
<path fill-rule="evenodd" clip-rule="evenodd" d="M8.36803 5.554V5.463V5.372C8.38184 4.35688 8.77123 3.38287 9.46103 2.638C10.1963 1.92119 11.1692 1.49947 12.195 1.453C13.2106 1.46684 14.1851 1.85661 14.93 2.547C15.6468 3.28224 16.0686 4.25521 16.115 5.281V5.554H8.36803ZM7.63803 9.473C7.82714 9.48586 8.00518 9.56679 8.13921 9.70082C8.27324 9.83485 8.35417 10.0129 8.36703 10.202C8.35417 10.3911 8.27324 10.5691 8.13921 10.7032C8.00518 10.8372 7.82714 10.9181 7.63803 10.931C7.44892 10.9181 7.27088 10.8372 7.13685 10.7032C7.00282 10.5691 6.92189 10.3911 6.90903 10.202C6.90012 10.104 6.91286 10.0053 6.94635 9.91282C6.97984 9.82033 7.03325 9.73633 7.1028 9.66677C7.17236 9.59722 7.25636 9.54381 7.34885 9.51032C7.44134 9.47683 7.54007 9.46409 7.63803 9.473ZM16.751 9.473C16.9401 9.48586 17.1182 9.56679 17.2522 9.70082C17.3862 9.83485 17.4672 10.0129 17.48 10.202C17.48 10.3953 17.4032 10.5808 17.2665 10.7175C17.1298 10.8542 16.9444 10.931 16.751 10.931C16.5577 10.931 16.3723 10.8542 16.2355 10.7175C16.0988 10.5808 16.022 10.3953 16.022 10.202C16.0207 10.1059 16.0386 10.0105 16.0748 9.92144C16.1109 9.83238 16.1646 9.75148 16.2325 9.68352C16.3005 9.61555 16.3814 9.56191 16.4705 9.52575C16.5595 9.48959 16.6549 9.47165 16.751 9.473ZM16.022 8.379V7.012H8.36803V8.379C8.72835 8.52511 9.03517 8.77824 9.24707 9.10424C9.45898 9.43023 9.56577 9.81339 9.55303 10.202C9.5592 10.4551 9.51388 10.7069 9.41982 10.9419C9.32575 11.177 9.18491 11.3905 9.00582 11.5695C8.82674 11.7485 8.61315 11.8892 8.37803 11.9832C8.14291 12.0771 7.89115 12.1223 7.63803 12.116C7.38499 12.1222 7.13334 12.0769 6.89834 11.9829C6.66333 11.8889 6.44987 11.7481 6.27089 11.5691C6.09192 11.3902 5.95116 11.1767 5.85715 10.9417C5.76315 10.7067 5.71786 10.455 5.72403 10.202C5.72393 9.81605 5.83585 9.43837 6.04619 9.11477C6.25654 8.79118 6.55627 8.53559 6.90903 8.379V7.012H4.08403C3.90203 7.012 3.81103 7.012 3.71903 7.103C3.64847 7.10418 3.57906 7.12114 3.5159 7.15264C3.45275 7.18413 3.39744 7.22935 3.35403 7.285L3.26303 7.376C3.26303 7.467 3.17203 7.558 3.08103 7.649C3.08103 7.831 2.99003 7.922 2.99003 8.105L1.99003 25.967C1.99003 26.149 1.99003 26.24 2.08103 26.332C2.17203 26.424 2.17203 26.605 2.35403 26.697C2.45806 26.8095 2.58175 26.902 2.71903 26.97C2.82615 27.0424 2.95544 27.0747 3.08403 27.061H21.4C21.582 27.061 21.673 27.061 21.765 26.97C21.857 26.879 22.038 26.879 22.13 26.697C22.2425 26.593 22.335 26.4693 22.403 26.332C22.4755 26.2249 22.5077 26.0956 22.494 25.967L21.4 8.106C21.4142 7.94841 21.3826 7.79007 21.309 7.65C21.218 7.559 21.218 7.377 21.036 7.285C20.932 7.17253 20.8083 7.08001 20.671 7.012C20.5344 6.92927 20.373 6.89706 20.215 6.921H17.39V8.286C17.7503 8.43211 18.0572 8.68524 18.2691 9.01124C18.481 9.33723 18.5878 9.72039 18.575 10.109C18.575 10.3603 18.5255 10.6092 18.4293 10.8415C18.3331 11.0737 18.1922 11.2847 18.0144 11.4624C17.8367 11.6401 17.6257 11.7811 17.3935 11.8773C17.1613 11.9735 16.9124 12.023 16.661 12.023C16.4097 12.023 16.1608 11.9735 15.9286 11.8773C15.6964 11.7811 15.4854 11.6401 15.3076 11.4624C15.1299 11.2847 14.9889 11.0737 14.8927 10.8415C14.7965 10.6092 14.747 10.3603 14.747 10.109C14.8024 9.73816 14.9477 9.38649 15.17 9.08462C15.3924 8.78274 15.6853 8.53982 16.023 8.377L16.022 8.379ZM17.48 5.554V5.372C17.479 3.97056 16.9219 2.62681 15.931 1.63576C14.9401 0.644696 13.5965 0.0873227 12.195 0.0859985L12.104 0.0859985C10.7083 0.114641 9.37454 0.667646 8.36803 1.635C7.42632 2.65115 6.90494 3.98658 6.90903 5.372V5.463V5.554H4.08403C3.77213 5.56157 3.4639 5.62315 3.17303 5.736C2.87293 5.87462 2.59628 6.05917 2.35303 6.283L2.26203 6.374C2.07792 6.59538 1.92454 6.84059 1.80603 7.103C1.70189 7.39634 1.64059 7.70316 1.62403 8.014L0.530029 25.968C0.537606 26.2799 0.599184 26.5881 0.712029 26.879C0.828465 27.191 1.01571 27.4717 1.25903 27.699C1.48636 27.9423 1.76706 28.1296 2.07903 28.246C2.37237 28.3501 2.67919 28.4114 2.99003 28.428H21.309C21.6209 28.4204 21.9292 28.3588 22.22 28.246C22.4934 28.1491 22.7423 27.9935 22.949 27.79L23.04 27.699C23.2833 27.4717 23.4706 27.191 23.587 26.879C23.6912 26.5857 23.7525 26.2788 23.769 25.968L22.769 8.106C22.7615 7.7941 22.6999 7.48587 22.587 7.195C22.4706 6.88303 22.2833 6.60233 22.04 6.375C21.8127 6.13168 21.532 5.94443 21.22 5.828C20.9267 5.72386 20.6199 5.66256 20.309 5.646H17.481L17.48 5.554Z" fill="#231F20"/>
</svg>
