<svg width="20" height="21" viewBox="0 0 20 21" fill="none" xmlns="http://www.w3.org/2000/svg">
<path d="M19.848 19.813L14.157 14.352C14.9422 13.6318 15.5691 12.7562 15.9978 11.7808C16.4264 10.8054 16.6475 9.75145 16.647 8.68599C16.5865 6.52835 15.6795 4.48115 14.1219 2.98682C12.5643 1.49248 10.4813 0.671033 8.323 0.699988C7.2511 0.67384 6.18462 0.860086 5.18503 1.24799C4.18543 1.6359 3.27249 2.21779 2.49882 2.96014C1.72514 3.70249 1.10603 4.59062 0.677163 5.57333C0.248296 6.55605 0.018154 7.61392 0 8.68599C0.018154 9.75805 0.248296 10.8159 0.677163 11.7986C1.10603 12.7814 1.72514 13.6695 2.49882 14.4118C3.27249 15.1542 4.18543 15.7361 5.18503 16.124C6.18462 16.5119 7.2511 16.6981 8.323 16.672C10.1161 16.6764 11.8627 16.1019 13.303 15.034L19.065 20.563C19.1626 20.6507 19.2893 20.6992 19.4205 20.6992C19.5517 20.6992 19.6784 20.6507 19.776 20.563C19.8377 20.5244 19.8898 20.472 19.928 20.4101C19.9663 20.3481 19.9899 20.2782 19.9968 20.2057C20.0038 20.1332 19.994 20.0601 19.9682 19.992C19.9424 19.9239 19.9013 19.8627 19.848 19.813ZM1.067 8.68599C1.11473 6.80346 1.90383 5.01591 3.26265 3.71215C4.62147 2.40838 6.44011 1.69386 8.323 1.72399C10.2061 1.69359 12.025 2.408 13.384 3.71179C14.743 5.01558 15.5323 6.80328 15.58 8.68599C15.5323 10.5685 14.7432 12.3561 13.3844 13.6598C12.0255 14.9636 10.2069 15.6781 8.324 15.648C6.44431 15.6667 4.63206 14.9484 3.27557 13.6471C1.91908 12.3457 1.12626 10.5648 1.067 8.68599Z" fill="#231F20"/>
</svg>
