<svg width="26" height="20" viewBox="0 0 26 20" fill="none" xmlns="http://www.w3.org/2000/svg">
<path fill-rule="evenodd" clip-rule="evenodd" d="M12.9208 18.516C13.5348 18.056 14.1478 17.596 14.8378 17.136C18.5958 14.528 23.6578 10.924 23.6578 7.31898C23.6926 6.40964 23.5006 5.50593 23.0991 4.68929C22.6976 3.87265 22.0992 3.16873 21.3578 2.64098C20.6745 2.17044 19.8833 1.88013 19.0578 1.79698C18.2523 1.7044 17.4364 1.80978 16.6808 2.10398C15.8762 2.42671 15.1661 2.94745 14.6165 3.61787C14.0669 4.2883 13.6955 5.0867 13.5368 5.93898C13.5031 6.08973 13.4126 6.22169 13.2841 6.30737C13.1556 6.39305 12.9989 6.42587 12.8468 6.39898C12.7383 6.36596 12.6395 6.30673 12.5593 6.2265C12.4791 6.14627 12.4198 6.04753 12.3868 5.93898C12.2404 5.07017 11.8642 4.25635 11.2973 3.58186C10.7304 2.90738 9.99347 2.39678 9.16283 2.10298C8.40606 1.81354 7.5913 1.70831 6.78583 1.79598C5.96032 1.87913 5.16918 2.16944 4.48583 2.63998C3.7323 3.15588 3.12467 3.85754 2.72175 4.67706C2.31882 5.49658 2.13423 6.40622 2.18583 7.31798C2.18583 10.999 7.24783 14.527 11.0058 17.135C11.6705 17.5582 12.3106 18.0189 12.9228 18.515L12.9208 18.516ZM15.6048 18.133C14.7615 18.7463 13.9948 19.2833 13.3048 19.744C13.1909 19.8186 13.0576 19.8584 12.9213 19.8584C12.7851 19.8584 12.6518 19.8186 12.5378 19.744C11.9238 19.284 11.0808 18.744 10.2378 18.133C6.32583 15.294 0.956827 11.613 0.956827 7.31798C0.912865 6.20947 1.15002 5.10784 1.64622 4.11561C2.14242 3.12338 2.88155 2.27279 3.79483 1.64298C4.64631 1.0856 5.62001 0.742501 6.63283 0.642981C7.64618 0.505722 8.67781 0.639248 9.62283 1.02998C11.0946 1.58991 12.2999 2.68595 12.9968 4.09798C13.694 2.68577 14.8997 1.58969 16.3718 1.02998C17.3257 0.672489 18.3495 0.541047 19.3628 0.645981C20.3674 0.781015 21.3335 1.12141 22.2008 1.64598C23.1264 2.26359 23.8749 3.11183 24.3726 4.10702C24.8703 5.10221 25.0999 6.20996 25.0388 7.32098C24.9568 11.613 19.5928 15.294 15.6048 18.132V18.133Z" fill="#231F20"/>
</svg>
