<svg width="501" height="85" viewBox="0 0 501 85" fill="none" xmlns="http://www.w3.org/2000/svg">
<path d="M447.377 82.384C444.862 82.384 442.347 82.284 439.832 82.284C437.317 82.184 434.803 82.184 432.288 82.184H429.371C427.593 82.1364 425.831 81.8316 424.14 81.279C420.217 80.072 417.803 76.652 417.602 72.226C417.402 68.303 418.302 64.48 419.212 60.557C419.512 59.45 419.712 58.243 420.012 57.137C422.929 43.356 425.746 29.877 428.764 16.498C430.373 9.45701 433.894 5.13101 439.527 3.22001C442.598 2.30897 445.782 1.83399 448.986 1.80901C451.903 1.70901 454.82 1.60901 457.838 1.60901C460.655 1.60901 463.572 1.60901 466.589 1.70901C472.323 1.90901 477.956 2.20901 483.189 4.42501C498.278 10.561 500.189 24.744 499.989 32.591C499.689 45.467 493.551 60.153 484.799 69.106C478.471 75.5954 470.214 79.8651 461.261 81.278C456.682 82.1127 452.03 82.4832 447.377 82.384ZM441.945 78.461H449.59C451.401 78.461 452.909 78.461 454.318 78.361C461.749 78.1647 468.985 75.9383 475.241 71.923C484.495 65.988 490.531 57.237 493.85 45.166C496.063 37.119 496.566 30.58 495.359 24.444C493.146 13.077 485.199 6.64401 472.424 5.93501C467.998 5.63501 463.672 5.63501 459.951 5.63501H449.59C447.231 5.55099 444.871 5.7186 442.548 6.13501C437.016 7.14101 433.696 11.064 432.187 17.804C428.767 33.295 426.051 46.372 423.436 58.745C422.636 62.668 422.028 66.893 421.424 72.023C421.124 74.84 422.631 76.952 425.649 77.857C426.954 78.2527 428.309 78.4548 429.673 78.457H435.002C436.312 78.562 441.945 78.461 441.945 78.461Z" fill="black"/>
<path d="M11.916 83.793C9.63245 83.8464 7.37586 83.2911 5.37796 82.184C2.66196 80.675 1.05196 78.361 0.245956 74.84C-0.354044 72.023 0.245956 69.207 0.945956 66.29C1.14596 65.59 1.24596 64.781 1.44596 64.077C3.65896 53.314 5.97296 42.349 8.28596 31.888C9.39296 26.557 10.499 21.326 11.706 15.995C13.014 9.356 16.031 5.031 21.061 2.315C23.3892 1.08206 25.9795 0.426012 28.614 0.402002C31.6939 0.299498 34.7032 1.33831 37.064 3.319C40.182 6.136 41.188 9.958 40.182 15.289C39.982 16.194 39.882 17.2 39.682 18.206L39.182 20.62L37.975 25.448L48.638 16.194L53.165 12.271C56.485 9.354 60.005 6.236 63.526 3.419C65.7327 1.49339 68.5385 0.391915 71.466 0.302002C73.2515 0.354574 75.0033 0.801232 76.596 1.61C78.0169 2.34465 79.2584 3.38357 80.232 4.65277C81.2057 5.92197 81.8875 7.39023 82.229 8.953C82.5134 10.4989 82.444 12.0892 82.0259 13.6045C81.6078 15.1198 80.8519 16.5207 79.815 17.702C77.5525 20.2319 75.1334 22.6173 72.572 24.844C71.566 25.749 70.46 26.655 69.454 27.661C67.643 29.371 63.519 32.892 61.608 34.602C61.9846 35.7132 62.4556 36.7901 63.016 37.821C64.223 40.537 65.33 43.253 66.537 46.07C68.75 51.401 71.064 56.934 73.578 62.27C77.501 70.82 72.572 77.56 66.738 81.081C64.1535 82.7401 61.1577 83.6457 58.087 83.696C57.1734 83.6957 56.2626 83.5951 55.371 83.396C53.598 83.1206 51.926 82.3928 50.5165 81.2827C49.1069 80.1727 48.0073 78.718 47.324 77.059L44.91 71.426C42.898 66.799 40.786 62.071 38.874 57.444C38.574 56.744 37.265 53.42 37.265 53.42C36.36 53.92 33.644 56.438 32.94 56.84C30.224 58.651 30.526 60.662 30.023 62.875C29.2965 66.9508 28.1155 70.9323 26.502 74.745C25.1593 77.4656 23.081 79.7555 20.5028 81.3548C17.9247 82.9541 14.9499 83.7988 11.916 83.793ZM41.49 54.722C44.407 61.462 47.525 68.502 50.446 75.444C50.985 76.857 51.9552 78.0644 53.219 78.8949C54.4828 79.7254 55.9761 80.1369 57.487 80.071H57.887C59.1901 80.0426 60.4803 79.8063 61.709 79.371C65.733 78.063 68.75 75.549 70.058 72.43C71.366 69.311 71.1649 65.69 69.2579 61.667C66.4409 55.732 63.826 49.596 61.311 43.561C60.003 40.443 58.696 37.224 57.287 34.105C57.287 33.905 57.287 33.805 57.287 33.705L57.487 33.505C61.611 29.884 65.735 26.262 69.558 22.842L70.664 21.836C72.575 20.126 74.587 18.315 76.398 16.404C77.6262 15.1552 78.3786 13.516 78.5247 11.7706C78.6708 10.0251 78.2014 8.28359 77.198 6.848C76.5372 5.99277 75.6806 5.30882 74.7003 4.85374C73.72 4.39866 72.6447 4.18577 71.565 4.233C70.3478 4.24674 69.1475 4.51945 68.044 5.033C67.1775 5.38728 66.3649 5.86122 65.63 6.441C57.784 13.181 51.346 18.713 45.411 23.941C41.488 27.361 37.665 30.681 33.843 34.101L32.032 35.71C32.332 34.402 32.532 33.095 32.832 31.888C34.14 25.752 35.548 19.415 36.554 13.178C37.054 10.462 36.654 8.35 35.447 6.841C34.24 5.332 32.236 4.527 29.318 4.326H28.618C21.975 4.326 16.946 8.752 15.437 15.793C13.928 22.834 12.419 29.775 11.011 36.716C9.70296 42.55 8.49596 48.284 7.28896 54.116C6.08196 59.548 4.97496 65.282 3.86896 71.016C2.96396 75.442 5.17696 78.761 9.60296 79.667C10.4265 79.8658 11.2707 79.9665 12.118 79.967C14.7989 79.9711 17.41 79.1128 19.5655 77.5187C21.7211 75.9247 23.3066 73.6795 24.088 71.115C25.1152 67.7779 25.9549 64.3859 26.603 60.955L27.003 59.144C27.1718 57.9017 27.7781 56.7603 28.713 55.925C31.33 53.716 33.946 51.402 36.662 48.988L38.372 47.479C38.372 47.58 41.49 54.722 41.49 54.722Z" fill="black"/>
<path d="M345.579 83.793C343.31 83.8189 341.069 83.3015 339.041 82.284C337.242 81.3067 335.792 79.7942 334.89 77.9559C333.989 76.1177 333.682 74.0446 334.011 72.024C335.218 65.083 336.727 58.142 338.135 51.403L338.935 47.581C341.047 37.522 343.261 27.161 345.574 17.001C346.781 11.67 348.893 8.048 352.414 5.534C355.068 3.54257 358.255 2.38676 361.568 2.214C363.58 2.114 365.793 2.114 368.509 2.114H378.769C380.68 2.114 382.591 2.114 384.402 2.014C386.313 2.014 388.124 1.914 390.035 1.914C392.65 1.914 394.863 2.014 396.875 2.114C406.23 2.914 412.165 6.138 415.384 12.576C418.71 19.011 418.11 25.751 413.679 33.597C411.773 36.9901 409.167 39.939 406.034 42.248C405.028 42.848 403.217 43.757 403.217 43.757C404.281 44.3742 405.291 45.0808 406.235 45.869C409.253 48.887 409.454 52.81 409.152 56.532C409.052 58.443 408.852 60.254 408.652 62.165C408.452 64.378 408.252 66.591 408.052 68.905C407.352 79.769 398.999 83.591 392.058 83.591H391.958C385.721 83.591 381.899 81.378 380.29 77.053C379.679 74.7593 379.476 72.376 379.69 70.012V68.301C379.69 66.49 379.89 64.68 379.99 62.768C380.091 61.762 380.191 60.756 380.29 59.75C380.373 59.1958 380.335 58.6302 380.179 58.092C380.022 57.5538 379.752 57.0558 379.385 56.632C378.654 55.8434 377.642 55.3737 376.568 55.324C373.55 55.124 371.036 55.024 368.722 55.024H365.101C365.101 55.024 364.701 57.036 364.401 57.941C363.903 59.7631 363.5 61.61 363.194 63.474C362.494 66.592 361.786 69.912 360.78 72.93C359.733 76.1233 357.694 78.8989 354.96 80.8528C352.226 82.8067 348.939 83.8368 345.579 83.793ZM370.223 51.301C371.933 51.301 373.341 51.301 374.649 51.401C378.17 51.501 380.685 52.508 382.294 54.318C383.803 56.028 384.407 58.543 384.105 61.661C383.705 65.584 383.505 69.708 383.305 73.229C383.166 74.4818 383.473 75.7437 384.172 76.7925C384.871 77.8414 385.918 78.6099 387.128 78.963C388.769 79.5722 390.507 79.8788 392.258 79.868C398.193 79.868 404.329 76.247 404.43 68.199C404.544 64.5313 404.846 60.8718 405.335 57.235C406.24 51.099 404.635 47.779 399.4 44.862C398.8 44.462 397.288 43.756 396.684 43.454L400.104 41.744C403.524 40.436 407.347 38.525 409.359 34.602C411.371 30.578 412.678 27.963 413.282 24.543C415.093 14.484 410.968 8.343 400.809 6.336C396.459 5.58461 392.044 5.28135 387.632 5.431H383.2C378.975 5.431 374.649 5.531 370.525 5.531C368.111 5.531 365.697 5.631 363.282 5.631C356.04 5.731 351.11 9.554 349.602 16.595C347.087 27.66 344.773 38.926 342.46 49.795L340.951 56.937C340.751 58.044 340.451 59.049 340.251 60.156C339.451 63.878 338.541 67.801 338.038 71.724C337.638 74.239 338.038 76.15 339.144 77.458C339.721 78.1344 340.427 78.6879 341.222 79.0855C342.017 79.483 342.884 79.7165 343.771 79.772C344.506 79.8533 345.245 79.8867 345.984 79.872C352.321 79.872 356.747 76.15 358.357 69.511C359.564 64.381 360.671 59.251 361.677 54.221L362.177 51.606C362.177 51.406 362.277 51.306 362.277 51.206H367.21C368.212 51.293 369.218 51.3248 370.223 51.301Z" fill="black"/>
<path d="M247.099 82.284H222.455C216.721 82.184 212.698 79.367 211.591 74.74C211.005 72.2289 210.971 69.6206 211.491 67.095C214.71 51.403 218.13 35.207 222.053 17.403C223.461 10.965 226.177 6.84104 230.503 4.62804C232.881 3.29125 235.526 2.49982 238.247 2.31104C244.584 2.01104 251.425 1.81104 258.365 1.81104H264.903C270.033 1.91104 275.867 2.11104 281.403 4.22504C288.444 7.04204 291.965 11.87 291.864 18.811C291.764 26.255 289.249 32.19 284.32 36.411C283.52 37.011 280.498 39.228 280.498 39.228C281.715 40.039 282.891 40.9118 284.019 41.843C287.64 45.867 288.747 50.796 287.54 56.932C284.925 70.21 275.57 78.962 261.286 81.476C258.458 81.9403 255.601 82.2076 252.736 82.276L247.099 82.284ZM224.566 78.562H240.359C244.986 78.562 248.809 78.562 252.329 78.462C255.918 78.4046 259.491 77.9661 262.988 77.154C273.148 74.74 279.788 69.107 282.704 60.354C285.923 50.597 283.609 43.854 275.361 39.129C276.568 38.429 277.574 37.721 278.781 37.117C280.841 36.0495 282.639 34.5401 284.047 32.6968C285.456 30.8535 286.44 28.7218 286.929 26.454C287.015 25.9397 287.149 25.4345 287.329 24.945C287.543 24.1848 287.71 23.412 287.829 22.631C288.629 18.406 287.929 14.885 285.817 12.069C283.302 8.74903 278.775 6.63704 272.941 6.13404C268.917 5.73404 264.491 5.63404 259.261 5.63404C255.338 5.63404 251.415 5.73404 247.492 5.83403C244.374 5.93403 241.054 6.03403 237.936 6.03403C236.325 5.97204 234.725 6.31747 233.283 7.03834C231.841 7.75921 230.604 8.83222 229.687 10.158C228.07 12.4914 226.847 15.074 226.066 17.803C224.758 23.034 223.652 28.365 222.545 33.596C222.245 34.904 222.045 36.211 221.745 37.519L220.638 42.951C218.827 51.702 216.916 60.751 215.206 69.608C214.924 70.6818 214.878 71.8036 215.068 72.897C215.259 73.9905 215.683 75.0301 216.312 75.945C217.519 77.554 219.632 78.46 222.549 78.661H223.857L224.566 78.562Z" fill="black"/>
<path d="M115.427 84.2C110.038 84.2454 104.697 83.1842 99.735 81.082C88.466 76.45 82.427 67.9 81.827 55.627C81.027 39.227 86.555 25.248 98.227 13.982C105.869 6.63902 115.727 2.01202 127.295 0.400018C129.26 0.12018 131.242 -0.0135205 133.227 1.8259e-05C139.496 0.0204338 145.669 1.53787 151.233 4.42602C159.683 8.75102 164.813 15.994 166.523 25.953C166.723 27.261 166.823 28.669 166.923 30.077C166.923 30.677 167.023 31.385 167.023 31.988C166.223 47.479 161.189 59.751 151.632 69.509C144.289 76.953 134.932 81.58 123.567 83.491C120.882 83.9803 118.156 84.2176 115.427 84.2ZM132.927 3.82202C126.97 3.82367 121.066 4.95006 115.527 7.14202C104.561 11.2916 95.6465 19.5559 90.68 30.177C86.5474 38.4926 84.7731 47.7818 85.55 57.035C85.7477 60.2575 86.6092 63.4043 88.0806 66.2781C89.5519 69.1519 91.6012 71.6906 94.1 73.735C98.627 77.457 104.26 79.469 111.2 80.173C112.905 80.34 114.618 80.4068 116.33 80.373C122.195 80.4746 128.023 79.4161 133.478 77.2584C138.933 75.1007 143.908 71.8864 148.117 67.8C159.786 56.634 164.717 42.552 162.703 25.954C162.298 22.5578 161.151 19.2921 159.343 16.3888C157.535 13.4854 155.11 11.0154 152.241 9.15402C147.111 5.63302 140.673 3.82302 132.927 3.82302V3.82202Z" fill="black"/>
<path d="M305.241 83.793C303.21 83.8482 301.201 83.3655 299.416 82.3939C297.632 81.4222 296.136 79.9961 295.081 78.26C293.573 75.6451 293.173 72.627 294.073 68.703C295.481 62.265 296.789 55.827 298.197 49.389C300.309 39.732 302.321 30.075 304.434 20.419L304.734 19.111C305.639 14.987 306.444 11.064 308.758 7.64404C310.295 5.48687 312.314 3.7181 314.655 2.47841C316.995 1.23873 319.593 0.56234 322.241 0.503045C323.221 0.498064 324.199 0.598644 325.158 0.803045C331.596 2.21104 334.513 6.83804 333.809 14.785L332.903 19.312C332.103 23.336 331.093 28.063 330.087 32.791L327.973 42.751C326.062 51.603 324.151 60.757 322.139 69.609C320.529 76.952 316.204 81.579 309.364 83.289C308.013 83.6111 306.63 83.7802 305.241 83.793ZM322.441 4.22504C321.494 4.2199 320.549 4.32052 319.624 4.52504C314.094 5.63305 310.673 9.35505 309.265 15.592C306.046 30.58 302.928 45.267 299.407 61.663C299.307 62.263 299.107 62.87 299.007 63.574C298.341 66.3928 297.837 69.2475 297.498 72.124C297.098 76.248 299.107 79.065 303.031 79.769C303.923 79.9681 304.833 80.0687 305.747 80.069C308.759 80.0749 311.679 79.0349 314.009 77.1268C316.339 75.2186 317.934 72.5607 318.522 69.607C321.137 57.737 323.652 45.666 326.167 33.897L327.977 25.447C328.677 22.329 329.285 19.311 329.788 16.796L330.388 13.979V13.779C330.388 8.34704 329.483 5.22904 324.654 4.52504C323.932 4.33346 323.19 4.23268 322.443 4.22504H322.441Z" fill="black"/>
<path d="M181.313 83.792C179.32 83.7569 177.347 83.3829 175.479 82.686C171.053 80.976 168.337 75.544 169.343 70.414C171.858 58.242 175.278 42.047 178.799 25.852C178.999 25.052 179.099 24.243 179.299 23.438C180.104 18.9881 181.282 14.6137 182.82 10.361C184.043 7.43812 186.095 4.93735 188.723 3.16751C191.351 1.39768 194.44 0.43628 197.608 0.402039C198.621 0.402179 199.632 0.50267 200.626 0.702039C207.064 2.11004 209.679 5.93304 209.679 13.779L209.179 16.193C208.679 18.708 207.972 21.927 207.368 25.246L207.068 26.755C204.05 40.737 201.032 55.122 197.914 69.305C196.807 74.234 194.594 77.855 191.174 80.269C188.359 82.4868 184.896 83.7239 181.313 83.792ZM198.213 4.22404C191.172 4.22404 186.444 8.24804 184.834 15.49C183.526 21.425 182.219 27.46 181.011 33.29L179.502 40.231L177.792 48.077C176.283 55.219 174.674 62.663 173.165 70.006C172.834 71.2737 172.789 72.599 173.032 73.8863C173.276 75.1736 173.802 76.3908 174.573 77.45C175.316 78.3131 176.245 78.9968 177.291 79.4497C178.336 79.9025 179.47 80.1129 180.608 80.065C181.383 80.0441 182.155 79.9773 182.922 79.865C189.36 78.658 192.981 74.835 194.39 68.096C196.201 59.345 198.112 50.696 199.923 41.942C201.13 36.208 202.337 30.475 203.645 24.742C204.245 21.825 204.852 18.908 205.355 16.493L205.855 13.777V13.577C205.855 6.93804 203.642 4.22204 198.21 4.22204L198.213 4.22404Z" fill="black"/>
<path d="M442.649 62.87C444.359 55.124 445.969 47.278 447.679 39.432L449.389 31.284L449.889 28.87C450.389 26.355 450.895 23.84 451.599 21.326C451.599 21.226 451.799 21.026 451.899 20.926H455.52C458.346 20.8447 461.173 21.012 463.97 21.426C472.017 22.633 475.739 27.663 475.035 36.213C474.662 41.7331 473.227 47.1293 470.81 52.106C467.39 58.745 461.757 62.266 453.71 62.869C453.21 62.869 452.603 62.969 451.899 62.969H445.159C444.319 62.9924 443.479 62.959 442.644 62.869L442.649 62.87ZM454.619 24.645C454.619 24.645 454.519 25.145 454.019 27.763C453.819 28.97 453.519 30.177 453.219 31.384C453.019 32.084 452.919 32.792 452.719 33.496C451.11 40.839 449.601 48.182 447.991 55.526C447.791 56.226 447.191 59.449 447.191 59.449C447.191 59.449 451.516 59.549 452.321 59.549C457.25 59.549 463.285 56.732 465.7 53.212C469.623 47.679 470.528 41.141 471.232 35.912V35.712C471.232 28.972 469.22 26.156 463.688 25.15C462.38 24.95 460.972 24.85 459.664 24.75C458.964 24.75 458.356 24.65 457.652 24.65C457.536 24.745 454.619 24.645 454.619 24.645Z" fill="black"/>
<path d="M377.667 39.03H364.59C365.797 33.397 367.205 27.462 368.413 21.43C368.613 20.525 368.613 20.525 369.419 20.525H369.519C372.235 20.625 374.951 20.625 377.164 20.625H384.406C384.978 20.611 385.55 20.6445 386.116 20.725C391.85 21.832 392.755 24.547 392.956 26.76C393.256 30.582 391.749 35.31 387.625 37.222C385.238 38.1455 382.731 38.7213 380.181 38.932C379.346 39.0213 378.506 39.054 377.667 39.03ZM371.833 24.042C371.833 24.042 371.433 25.35 370.827 28.267C370.727 28.667 370.627 29.067 370.527 29.575C370.413 29.8642 370.345 30.1697 370.327 30.48C369.927 32.391 369.527 35.208 369.527 35.208C369.527 35.208 372.545 35.408 373.652 35.408H380.09C381.004 35.4077 381.914 35.3071 382.806 35.108H382.906C384.604 35.0011 386.193 34.238 387.338 32.9801C388.483 31.7222 389.094 30.0683 389.042 28.368C389.042 25.853 387.634 24.244 385.119 24.244C384.113 24.244 383.107 24.244 382.101 24.144C380.089 24.144 377.977 24.044 375.965 23.944C375.756 24.042 371.833 24.042 371.833 24.042Z" fill="black"/>
<path d="M244.483 64.982H235.732L236.232 62.668C236.932 59.449 237.54 56.23 238.244 53.112C238.444 52.312 238.544 51.503 238.744 50.798C239.044 49.591 239.344 48.283 239.544 46.975C239.544 46.875 239.544 46.775 239.644 46.775H249.1C251.514 46.775 253.425 46.775 255.136 46.875C260.065 46.975 263.686 49.792 263.887 53.615C264.062 55.6985 263.573 57.7838 262.491 59.5728C261.409 61.3617 259.788 62.7626 257.862 63.575C255.717 64.4577 253.438 64.968 251.122 65.084C249.211 64.982 247.099 64.982 244.483 64.982ZM250.72 50.296H242.874C242.874 50.296 242.774 50.896 242.474 52.207C242.074 53.917 241.674 55.627 241.267 57.639C241.167 58.339 240.467 61.562 240.467 61.562H242.378C243.585 61.462 244.792 61.462 245.899 61.462C248.489 61.4524 251.075 61.2854 253.645 60.962C255.787 60.4669 257.68 59.217 258.976 57.441C259.512 56.8118 259.862 56.045 259.986 55.2274C260.11 54.4098 260.002 53.5738 259.676 52.814C258.976 51.305 257.362 50.5 255.25 50.4C253.838 50.296 252.332 50.296 250.72 50.296Z" fill="black"/>
<path d="M256.052 36.812H255.452C254.652 36.812 253.843 36.712 253.138 36.712H241.768V36.612C242.268 34.399 242.774 32.085 243.277 29.872C243.977 26.351 244.786 22.931 245.591 19.41C245.591 19.31 245.691 19.21 245.791 19.11H250.418C253.536 19.11 257.158 19.11 260.678 19.41C263.394 19.61 265.305 20.517 266.311 22.227C267.518 24.239 267.619 27.156 266.411 30.274C265.492 32.2413 264.027 33.9033 262.19 35.0623C260.354 36.2213 258.223 36.8286 256.052 36.812ZM250.62 33.191H253.839C254.745 33.2118 255.652 33.1784 256.555 33.091C258.017 33.0346 259.428 32.5321 260.596 31.651C261.765 30.77 262.636 29.5525 263.093 28.162C263.303 27.5888 263.385 26.9766 263.333 26.3683C263.281 25.76 263.097 25.1705 262.793 24.641C262.451 24.179 262.013 23.7961 261.51 23.5184C261.007 23.2408 260.449 23.0749 259.876 23.032C259.277 22.9427 258.67 22.9092 258.065 22.932H248.811C248.811 22.932 248.311 24.541 247.704 27.358C247.604 27.958 247.404 28.766 247.204 29.672C247.004 30.779 246.404 33.193 246.404 33.193C246.404 33.193 248.919 33.293 249.925 33.293L250.62 33.191Z" fill="black"/>
<path d="M120.052 64.982C117.827 65.0037 115.627 64.5224 113.614 63.574C109.389 61.562 107.176 57.941 106.573 51.905V49.491C107.273 38.024 110.295 30.278 116.23 24.343C119.491 21.1782 123.857 19.4099 128.401 19.414C130.72 19.4246 133.012 19.9036 135.141 20.822C136.94 21.6101 138.495 22.8652 139.644 24.4572C140.794 26.0491 141.496 27.9198 141.679 29.875C143.188 41.041 140.371 50.899 133.229 59.248C131.549 61.0641 129.511 62.5115 127.243 63.4985C124.974 64.4856 122.526 64.9907 120.052 64.982ZM129.005 22.935C126.601 22.9283 124.231 23.5006 122.095 24.6037C119.958 25.7067 118.119 27.308 116.733 29.272C112.005 35.81 109.893 43.657 110.396 52.509C110.696 56.935 113.313 60.255 117.236 60.858C118.199 61.0212 119.176 61.0882 120.153 61.058C122.336 61.0983 124.496 60.6173 126.456 59.655C128.415 58.6927 130.117 57.2768 131.419 55.525C135.845 50.093 138.058 43.454 138.46 34.501V31.787C138.06 26.154 134.537 22.734 129.206 22.734L129.005 22.935Z" fill="black"/>
</svg>
